<mxfile host="app.diagrams.net" modified="2023-01-09T21:40:30.479Z" agent="5.0 (X11; Linux x86_64) AppleWebKit/537.36 (KHTML, like Gecko) Chrome/108.0.0.0 Safari/537.36" etag="aNXLfd6H94T_WH_1kSH7" version="20.8.3" type="github">
  <diagram id="bqsTMmaJHcbLhPMaDeDk" name="Strona-1">
    <mxGraphModel dx="989" dy="636" grid="1" gridSize="10" guides="1" tooltips="1" connect="1" arrows="1" fold="1" page="1" pageScale="1" pageWidth="827" pageHeight="1169" math="0" shadow="0">
      <root>
        <mxCell id="0" />
        <mxCell id="1" parent="0" />
        <mxCell id="t2JApc_YLnskTHZPWgqo-6" style="edgeStyle=orthogonalEdgeStyle;rounded=0;orthogonalLoop=1;jettySize=auto;html=1;startArrow=classic;startFill=1;fillColor=#d5e8d4;strokeColor=#82b366;strokeWidth=2;" parent="1" source="t2JApc_YLnskTHZPWgqo-1" target="t2JApc_YLnskTHZPWgqo-2" edge="1">
          <mxGeometry relative="1" as="geometry" />
        </mxCell>
        <mxCell id="mwZH9PkfIwkJj4I-5qgm-5" style="edgeStyle=elbowEdgeStyle;rounded=0;orthogonalLoop=1;jettySize=auto;html=1;strokeWidth=1;startArrow=classic;startFill=1;elbow=vertical;" edge="1" parent="1" source="t2JApc_YLnskTHZPWgqo-1" target="mwZH9PkfIwkJj4I-5qgm-4">
          <mxGeometry relative="1" as="geometry">
            <mxPoint x="376.53999999999996" y="290.0000000000001" as="targetPoint" />
            <Array as="points">
              <mxPoint x="420" y="300" />
            </Array>
          </mxGeometry>
        </mxCell>
        <mxCell id="t2JApc_YLnskTHZPWgqo-1" value="PowerDNS&lt;br&gt;authoritative" style="verticalLabelPosition=bottom;sketch=0;aspect=fixed;html=1;verticalAlign=top;strokeColor=none;align=center;outlineConnect=0;shape=mxgraph.citrix.dns_server;" parent="1" vertex="1">
          <mxGeometry x="360" y="340" width="33.08" height="40" as="geometry" />
        </mxCell>
        <mxCell id="mwZH9PkfIwkJj4I-5qgm-2" style="edgeStyle=orthogonalEdgeStyle;rounded=0;orthogonalLoop=1;jettySize=auto;html=1;curved=1;fillColor=#d5e8d4;strokeColor=#82b366;strokeWidth=2;startArrow=classic;startFill=1;" edge="1" parent="1" source="t2JApc_YLnskTHZPWgqo-2" target="mwZH9PkfIwkJj4I-5qgm-1">
          <mxGeometry relative="1" as="geometry" />
        </mxCell>
        <mxCell id="t2JApc_YLnskTHZPWgqo-2" value="PowerDNS&lt;br&gt;recursor" style="verticalLabelPosition=bottom;sketch=0;aspect=fixed;html=1;verticalAlign=top;strokeColor=none;align=center;outlineConnect=0;shape=mxgraph.citrix.dns_server;" parent="1" vertex="1">
          <mxGeometry x="360" y="430" width="33.08" height="40" as="geometry" />
        </mxCell>
        <mxCell id="t2JApc_YLnskTHZPWgqo-7" value="&amp;nbsp;ip registration&amp;nbsp;" style="edgeStyle=orthogonalEdgeStyle;rounded=0;orthogonalLoop=1;jettySize=auto;html=1;fillColor=#e51400;strokeColor=#B20000;strokeWidth=2;" parent="1" source="t2JApc_YLnskTHZPWgqo-3" target="t2JApc_YLnskTHZPWgqo-1" edge="1">
          <mxGeometry relative="1" as="geometry" />
        </mxCell>
        <mxCell id="t2JApc_YLnskTHZPWgqo-3" value="pfSense&lt;br&gt;DHCP" style="verticalLabelPosition=bottom;sketch=0;aspect=fixed;html=1;verticalAlign=top;strokeColor=none;align=center;outlineConnect=0;shape=mxgraph.citrix.dhcp_server;" parent="1" vertex="1">
          <mxGeometry x="210" y="340" width="33.78" height="40" as="geometry" />
        </mxCell>
        <mxCell id="t2JApc_YLnskTHZPWgqo-5" value="&amp;nbsp;static registration&amp;nbsp;" style="edgeStyle=orthogonalEdgeStyle;rounded=0;orthogonalLoop=1;jettySize=auto;html=1;fillColor=#e51400;strokeColor=#B20000;strokeWidth=2;" parent="1" source="t2JApc_YLnskTHZPWgqo-4" target="t2JApc_YLnskTHZPWgqo-1" edge="1">
          <mxGeometry relative="1" as="geometry" />
        </mxCell>
        <mxCell id="mwZH9PkfIwkJj4I-5qgm-6" style="edgeStyle=elbowEdgeStyle;rounded=0;orthogonalLoop=1;jettySize=auto;html=1;strokeWidth=1;startArrow=classic;startFill=1;elbow=vertical;" edge="1" parent="1" source="t2JApc_YLnskTHZPWgqo-4" target="mwZH9PkfIwkJj4I-5qgm-4">
          <mxGeometry relative="1" as="geometry">
            <Array as="points">
              <mxPoint x="500" y="300" />
            </Array>
          </mxGeometry>
        </mxCell>
        <mxCell id="t2JApc_YLnskTHZPWgqo-4" value="phpIPAM" style="verticalLabelPosition=bottom;sketch=0;aspect=fixed;html=1;verticalAlign=top;strokeColor=none;align=center;outlineConnect=0;shape=mxgraph.citrix.tower_server;" parent="1" vertex="1">
          <mxGeometry x="520" y="340" width="30.59" height="40" as="geometry" />
        </mxCell>
        <mxCell id="t2JApc_YLnskTHZPWgqo-18" value="&amp;nbsp;ip allocation&amp;nbsp;" style="edgeStyle=orthogonalEdgeStyle;rounded=0;orthogonalLoop=1;jettySize=auto;html=1;startArrow=classic;startFill=1;fillColor=#dae8fc;strokeColor=#6c8ebf;strokeWidth=2;" parent="1" source="t2JApc_YLnskTHZPWgqo-17" target="t2JApc_YLnskTHZPWgqo-3" edge="1">
          <mxGeometry relative="1" as="geometry" />
        </mxCell>
        <mxCell id="t2JApc_YLnskTHZPWgqo-19" value="&amp;nbsp;DNS request / respond&amp;nbsp;" style="edgeStyle=elbowEdgeStyle;rounded=0;orthogonalLoop=1;jettySize=auto;html=1;startArrow=classic;startFill=1;fillColor=#d5e8d4;strokeColor=#82b366;strokeWidth=2;elbow=vertical;" parent="1" source="t2JApc_YLnskTHZPWgqo-17" target="t2JApc_YLnskTHZPWgqo-2" edge="1">
          <mxGeometry relative="1" as="geometry">
            <mxPoint x="410" y="410" as="targetPoint" />
            <Array as="points">
              <mxPoint x="230" y="450" />
            </Array>
          </mxGeometry>
        </mxCell>
        <mxCell id="t2JApc_YLnskTHZPWgqo-17" value="client" style="verticalLabelPosition=bottom;sketch=0;aspect=fixed;html=1;verticalAlign=top;strokeColor=none;align=center;outlineConnect=0;shape=mxgraph.citrix.thin_client;" parent="1" vertex="1">
          <mxGeometry x="70" y="345" width="30" height="30" as="geometry" />
        </mxCell>
        <mxCell id="mwZH9PkfIwkJj4I-5qgm-1" value="1.1.1.1&lt;br&gt;8.8.8.8" style="ellipse;shape=cloud;whiteSpace=wrap;html=1;" vertex="1" parent="1">
          <mxGeometry x="510" y="440" width="120" height="80" as="geometry" />
        </mxCell>
        <mxCell id="mwZH9PkfIwkJj4I-5qgm-4" value="MySQL" style="verticalLabelPosition=bottom;sketch=0;aspect=fixed;html=1;verticalAlign=top;strokeColor=none;align=center;outlineConnect=0;shape=mxgraph.citrix.database_server;" vertex="1" parent="1">
          <mxGeometry x="440" y="260" width="35.56" height="40" as="geometry" />
        </mxCell>
      </root>
    </mxGraphModel>
  </diagram>
</mxfile>
